<?xml version="1.0" encoding="utf-8"?>
<!-- Generator: Adobe Illustrator 20.1.0, SVG Export Plug-In . SVG Version: 6.00 Build 0)  -->
<svg version="1.1" id="Layer_1" xmlns="http://www.w3.org/2000/svg" xmlns:xlink="http://www.w3.org/1999/xlink" x="0px" y="0px"
	 viewBox="0 0 1400 980" style="enable-background:new 0 0 1400 980;" xml:space="preserve">
<style type="text/css">
	.st0{fill:#C8CCCC;}
	.st1{fill:#EDEFEF;}
	.st2{fill:#009FDF;}
</style>
<g>
	<g>
		<path class="st0" d="M107.9,249.3C107.9,249.3,107.9,249.3,107.9,249.3c37.4,15.7,71.4,37.6,101.3,65c3.6,3.3,8.4,5.1,13.4,5.1
			c0.5,0,0.9,0,1.4,0c6.3-0.4,12.4-3.6,16.7-8.9l23.6-28.3c6.5-7.7,7.7-18.4,3.3-26.8l37.3-51.3c0,0,0-0.1,0-0.1
			c23.1-32,31.5-60,24.8-83.3c-5.1-17.8-18.4-29.2-28.4-33.6c-20-10.4-40.7-9.6-59.9,2.4c-3.8,2.4-7.5,5.2-11.3,8.5
			c-0.3-0.5-0.5-1-0.8-1.4c-3.8-6.2-11.2-14.1-25.5-16.3c-12.4-1.9-21.8,6.1-27.4,13.2c-4.5,5.5-8.9,13.2-13.2,22.7
			c-5.5,12.2-9.4,24.3-10.9,29.3c-2.9,5.2-8.7,16.7-13.5,26.2c-1-0.1-2-0.2-3-0.2c-9.1,0-17.6,5.6-21.7,14.2l-16,33.3
			c-2.9,6.1-3.3,13-1.1,18.9C99.1,243.2,102.9,247.2,107.9,249.3z"/>
		<path class="st1" d="M105.9,233.2C105.9,233.2,105.9,233.2,105.9,233.2c37.4,15.7,71.4,37.6,101.3,65c3.6,3.3,8.4,5.1,13.4,5.1
			c0.5,0,0.9,0,1.4,0c6.3-0.4,12.4-3.6,16.7-8.9l23.6-28.3c6.5-7.7,7.7-18.4,3.3-26.8l37.3-51.3c0,0,0-0.1,0-0.1
			c23.1-32,31.5-60,24.8-83.3c-5.1-17.8-18.4-29.2-28.4-33.6c-20-10.4-40.7-9.6-59.9,2.4c-3.8,2.4-7.5,5.2-11.3,8.5
			c-0.3-0.5-0.5-1-0.8-1.4c-3.8-6.2-11.2-14.1-25.5-16.3c-12.4-1.9-21.8,6.1-27.4,13.2c-4.5,5.5-8.9,13.2-13.2,22.7
			c-5.5,12.2-9.4,24.3-10.9,29.3c-2.9,5.2-8.7,16.7-13.5,26.2c-1-0.1-2-0.2-3-0.2c-9.1,0-17.6,5.6-21.7,14.2l-16,33.3
			c-2.9,6.1-3.3,13-1.1,18.9C97.1,227.1,100.9,231.1,105.9,233.2z"/>
		<g>
			<path class="st2" d="M290.4,178.9c52.8-73.1,2.3-93.8,2.3-93.8c-43.4-23.1-71.1,30.5-78,35.4c0,0,12.6-36.5-15.2-40.8
				c-18-2.8-34.9,56-34.9,56c-2.2,3.8-10.2,19.5-16.9,32.7c37.3,16.7,71.6,38.9,102.2,66L290.4,178.9z"/>
			<path class="st2" d="M111.9,218.9c39,16.4,74.6,39.2,105.7,67.9c1.1,1,2.4,1.1,3.3,1.1c2.1-0.1,4.2-1.3,5.9-3.3l23.6-28.4
				c3-3.5,3.1-8.7,0.3-11.2l0,0c-1.7-1.5-3.3-3-5-4.5c-30.3-26.9-64.2-48.8-101.2-65.4c-2.8-1.2-5.5-2.4-8.3-3.6
				c-0.7-0.3-1.5-0.4-2.3-0.4c-3,0-6.2,2.1-7.8,5.4l-16,33.3c-1.1,2.3-1.3,4.8-0.6,6.7C109.9,217.2,110.6,218.3,111.9,218.9z"/>
		</g>
	</g>
	<g>
		<path class="st0" d="M590.4,417.4c-2.8-4.5-7-7.1-11.5-7.1c0,0,0,0,0,0c-4.5,0-8.8,2.7-11.5,7.2l-46.6,76.7l-0.6-0.9
			c-1.4-2.1-8.6-12.9-10.4-15.6l-19.3-29c-2.8-4.2-6.8-6.5-11.1-6.5c0,0,0,0,0,0c-4.3,0-8.4,2.4-11.1,6.6c0,0-37.8,57.6-39.1,59.4
			l-56.2,85.6c-3.6,5.5-4.4,13.1-2,19.5S378.4,624,384,624h78.5c1.5,0,3-0.3,4.4-0.9c1.4,0.6,2.9,0.9,4.4,0.9H688
			c5.5,0,10.6-4,13.1-10.3c2.4-6.3,1.8-13.9-1.6-19.4L590.4,417.4z"/>
		<path class="st1" d="M583.4,417.1c-2.8-4.3-7-6.8-11.5-6.8c0,0,0,0,0,0c-4.5,0-8.8,2.6-11.5,6.9l-46.6,73.7l-0.6-0.9
			c-1.4-2-8.6-12.4-10.4-15l-19.3-27.8c-2.8-4-6.8-6.3-11.1-6.3c0,0,0,0,0,0c-4.3,0-8.4,2.3-11.1,6.4c0,0-37.8,55.3-39.1,57.1
			l-56.2,82.2c-3.6,5.2-4.4,12.6-2,18.8s7.6,10.1,13.2,10.1h78.5c1.5,0,3-0.3,4.4-0.8c1.4,0.6,2.9,0.8,4.4,0.8h216.6
			c5.5,0,10.6-3.9,13.1-9.9c2.4-6,1.8-13.3-1.6-18.6L583.4,417.1z"/>
		<g>
			<path class="st2" d="M509.6,520.4l-7.6-10.1l-21.5-10.7l-10.1,30.8l-9.1-24.4c-17,10.7-24.6,15.3-28.1,17.4L377,598.9h78.5
				L509.6,520.4z"/>
			<path class="st2" d="M464.8,494.8l5.2,14l6.5-19.8l15.1,7.5l-19.3-25.6l-26.8,36c5.5-3.4,11.3-7,15.9-9.9L464.8,494.8z"/>
			<polygon class="st2" points="613.4,504.2 590.8,491.9 583.3,533.6 567.2,495.7 540.2,529.9 544.8,491.8 536.7,493.9 518.6,520.1 
				516.4,523.3 514.2,526.5 464.4,598.9 568.9,598.9 573.5,598.9 578.1,598.9 680.9,598.9 613.4,502.2 			"/>
			<polygon class="st2" points="550.3,505.3 569,481.6 580.6,508.8 585.7,480.4 605.8,491.3 571.9,442.8 543.4,484.1 553.2,481.6 
							"/>
		</g>
	</g>
	<g>
		<path class="st0" d="M746.7,170.8c-0.5,2.6-0.3,5.4,0.5,8l2,6.1c-1.3,3.4-1.4,7.1-0.2,10.5l2.4,7.3c0.1,0.4,0.3,0.9,0.5,1.3
			l-1.7,6.7c-0.9,3.5-0.6,7.2,0.9,10.5l-1.6,6.2c-0.5,2-0.6,4.1-0.4,6.1c-3.1,3-5.3,6.7-6.4,11c-1.4,5.8-0.5,11.9,2.6,17
			c3.1,5.1,8,8.7,13.9,10.2c4,1,8.2,0.8,12-0.4c2,1.8,4.4,3.1,7.1,3.7l6.3,1.4c2.2,2.8,5.4,4.8,8.9,5.6l7.5,1.7
			c0.4,0.1,0.8,0.2,1.2,0.2l4.7,4.9c2.5,2.6,5.9,4.2,9.4,4.7l4.5,4.6c1.4,1.5,3.2,2.7,5.1,3.5c2.2,10.2,11.3,17.7,22,17.7
			c10.3,0,19.3-7.2,21.8-17.1c2.6-0.8,4.9-2.2,6.8-4.1l4.5-4.6c3.6-0.4,6.9-2.1,9.4-4.7l5.4-5.5c1-1,1.8-2.1,2.5-3.3
			c0.9-0.1,1.7-0.3,2.6-0.5l7.4-2.2c3.5-1,6.5-3.2,8.5-6.2l6.2-1.8c2-0.6,3.8-1.6,5.4-2.8c4.1,1.2,8.5,1.1,12.7-0.2
			c5.7-1.8,10.4-5.7,13.2-11c2.8-5.3,3.3-11.4,1.5-17.1c-1.2-4-3.5-7.4-6.5-10.1c0.5-2.6,0.4-5.4-0.5-8l-2-6.1
			c1.3-3.4,1.4-7.1,0.2-10.5l-2.4-7.3c-0.1-0.4-0.3-0.9-0.5-1.3l1.7-6.7c0.9-3.5,0.6-7.2-0.9-10.5l1.6-6.2c0.5-2,0.6-4.1,0.4-6.1
			c7.6-7.2,9.3-18.9,3.7-28c-4-6.7-11.4-10.8-19.2-10.8c-2.3,0-4.5,0.3-6.7,1c-2-1.8-4.5-3.1-7.1-3.7l-6.3-1.4
			c-2.2-2.8-5.4-4.8-8.9-5.6l-7.5-1.7c-0.4-0.1-0.8-0.2-1.2-0.2l-4.7-4.9c-2.5-2.6-5.9-4.2-9.4-4.7l-4.5-4.6
			c-1.4-1.5-3.2-2.7-5.1-3.5c-2.2-10.2-11.3-17.7-22-17.7c-10.3,0-19.3,7.2-21.8,17.1c-2.6,0.8-4.9,2.2-6.8,4.1l-4.5,4.6
			c-3.6,0.4-6.9,2.1-9.4,4.7l-5.4,5.5c-1,1-1.8,2.1-2.5,3.3c-0.9,0.1-1.7,0.3-2.6,0.5l-7.4,2.2c-3.5,1-6.5,3.2-8.5,6.2l-6.2,1.8
			c-2,0.6-3.8,1.6-5.4,2.9c-4.2-1.1-8.6-1.1-12.7,0.2c-5.7,1.8-10.4,5.7-13.2,11c-2.8,5.3-3.3,11.4-1.5,17.1
			C741.4,164.6,743.7,168.1,746.7,170.8z"/>
		<path class="st1" d="M739,158.8c-0.5,2.6-0.3,5.4,0.5,8l2,6.1c-1.3,3.4-1.4,7.1-0.2,10.5l2.4,7.3c0.1,0.4,0.3,0.9,0.5,1.3
			l-1.7,6.7c-0.9,3.5-0.6,7.2,0.9,10.5l-1.6,6.2c-0.5,2-0.6,4.1-0.4,6.1c-3.1,3-5.3,6.7-6.4,11c-1.4,5.8-0.5,11.9,2.6,17
			c3.1,5.1,8,8.7,13.9,10.2c4,1,8.2,0.8,12-0.4c2,1.8,4.4,3.1,7.1,3.7l6.3,1.4c2.2,2.8,5.4,4.8,8.9,5.6l7.5,1.7
			c0.4,0.1,0.8,0.2,1.2,0.2l4.7,4.9c2.5,2.6,5.9,4.2,9.4,4.7l4.5,4.6c1.4,1.5,3.2,2.7,5.1,3.5c2.2,10.2,11.3,17.7,22,17.7
			c10.3,0,19.3-7.2,21.8-17.1c2.6-0.8,4.9-2.2,6.8-4.1l4.5-4.6c3.6-0.4,6.9-2.1,9.4-4.7l5.4-5.5c1-1,1.8-2.1,2.5-3.3
			c0.9-0.1,1.7-0.3,2.6-0.5l7.4-2.2c3.5-1,6.5-3.2,8.5-6.2l6.2-1.8c2-0.6,3.8-1.6,5.4-2.8c4.1,1.2,8.5,1.1,12.7-0.2
			c5.7-1.8,10.4-5.7,13.2-11c2.8-5.3,3.3-11.4,1.5-17.1c-1.2-4-3.5-7.4-6.5-10.1c0.5-2.6,0.4-5.4-0.5-8l-2-6.1
			c1.3-3.4,1.4-7.1,0.2-10.5l-2.4-7.3c-0.1-0.4-0.3-0.9-0.5-1.3l1.7-6.7c0.9-3.5,0.6-7.2-0.9-10.5l1.6-6.2c0.5-2,0.6-4.1,0.4-6.1
			c7.6-7.2,9.3-18.9,3.7-28c-4-6.7-11.4-10.8-19.2-10.8c-2.3,0-4.5,0.3-6.7,1c-2-1.8-4.5-3.1-7.1-3.7l-6.3-1.4
			c-2.2-2.8-5.4-4.8-8.9-5.6l-7.5-1.7c-0.4-0.1-0.8-0.2-1.2-0.2l-4.7-4.9c-2.5-2.6-5.9-4.2-9.4-4.7l-4.5-4.6
			c-1.4-1.5-3.2-2.7-5.1-3.5c-2.2-10.2-11.3-17.7-22-17.7c-10.3,0-19.3,7.2-21.8,17.1c-2.6,0.8-4.9,2.2-6.8,4.1l-4.5,4.6
			c-3.6,0.4-6.9,2.1-9.4,4.7l-5.4,5.5c-1,1-1.8,2.1-2.5,3.3c-0.9,0.1-1.7,0.3-2.6,0.5l-7.4,2.2c-3.5,1-6.5,3.2-8.5,6.2l-6.2,1.8
			c-2,0.6-3.8,1.6-5.4,2.9c-4.2-1.1-8.6-1.1-12.7,0.2c-5.7,1.8-10.4,5.7-13.2,11c-2.8,5.3-3.3,11.4-1.5,17.1
			C733.7,152.6,735.9,156.1,739,158.8z"/>
		<g>
			<path class="st2" d="M846.7,285c0-2.1-1-4-2.5-5.2c-1.1-0.9-2.5-1.4-4-1.4c-1.4,0-2.6,0.4-3.7,1.1c-1.7,1.2-2.9,3.2-2.9,5.4
				c0,3.6,2.9,6.6,6.6,6.6S846.7,288.6,846.7,285z"/>
			<path class="st2" d="M754.6,161.8l2.4,7.3l24.7-8.1l10.8,5.6l-36.1,11.8l2.4,7.3l43.2-14.1l16.7,8.8c-0.5,1.9-0.7,3.8-0.7,5.8
				c0,3.2,0.6,6.3,1.8,9.1L802,206.2l-42.2-10.9l-1.9,7.5l35,9l-10.4,6.3l-23.4-6l-1.9,7.5l16.1,4.2l-6.6,4c0.9,0.8,1.7,1.8,2.3,2.9
				c0.7,1.2,1.2,2.4,1.6,3.7l7.7-4.7l-4.1,18l7.5,1.7l5.8-25.3l10.4-6.3l-8.5,37l7.5,1.7l10.2-44.3l16.8-10.2
				c3.2,3.7,7.6,6.4,12.6,7.6v20.4l-31.3,30.4l5.4,5.5l25.9-25.2v12.1l-17.3,16.9l5.4,5.5l11.9-11.6v7.7c1.2-0.3,2.4-0.5,3.7-0.5
				c1.4,0,2.7,0.2,4,0.6v-9l13.2,12.9l5.4-5.5l-18.6-18.1v-12.1l27.2,26.5l5.4-5.5l-32.5-31.7V210c6.2-0.6,11.7-3.6,15.6-8l16.4,8.6
				l12.5,41.8l7.4-2.2l-10.3-34.6l10.8,5.6l6.9,23.2l7.4-2.2l-4.8-16l6.8,3.6c0.3-1.2,0.7-2.4,1.3-3.5c0.6-1.2,1.4-2.3,2.4-3.3
				l-8-4.2l17.6-5.7l-2.4-7.3l-24.7,8.1l-10.8-5.6l36.1-11.8l-2.4-7.3l-43.2,14.1l-14.8-7.8c1.2-2.8,1.8-5.9,1.8-9.1
				c0-3.1-0.6-6-1.7-8.7l14.6-8.9l42.2,10.9l1.9-7.5l-35-9l10.4-6.3l23.4,6l1.9-7.5l-16.1-4.2l6.6-4c-0.9-0.8-1.7-1.8-2.3-2.9
				c-0.7-1.2-1.2-2.4-1.6-3.7l-7.7,4.7l4.1-18l-7.5-1.7l-5.8,25.3l-10.4,6.3l8.5-37l-7.5-1.7l-10.2,44.3l-13.5,8.2
				c-3.9-4.6-9.5-7.7-15.9-8.4v-17.7l31.3-30.4l-5.4-5.5l-25.9,25.2V122l17.3-16.9l-5.4-5.5l-11.9,11.6v-7.7
				c-1.2,0.3-2.4,0.5-3.7,0.5c-1.4,0-2.7-0.2-4-0.6v9l-13.2-12.9l-5.4,5.5l18.6,18.1v12.1l-27.2-26.5l-5.4,5.5l32.5,31.7v16.9
				c-6.1,1.4-11.3,5.2-14.6,10.3l-17.4-9.1L792,122.5l-7.4,2.2l10.3,34.6l-10.8-5.6l-6.9-23.2l-7.4,2.2l4.8,16l-6.8-3.6
				c-0.3,1.2-0.7,2.4-1.3,3.5c-0.6,1.2-1.4,2.3-2.4,3.3l8,4.2L754.6,161.8z M828.6,177c1.9-2.7,4.6-4.8,7.8-5.9
				c1.7-0.6,3.5-0.9,5.4-0.9c0.8,0,1.6,0.1,2.3,0.2c3.6,0.5,6.8,2.2,9.2,4.7c1.8,1.8,3.2,4.1,3.9,6.6c0.4,1.5,0.7,3,0.7,4.7
				c0,1.9-0.3,3.8-1,5.5c-0.9,2.5-2.4,4.7-4.3,6.4c-2.3,2.1-5.2,3.5-8.5,4c-0.8,0.1-1.5,0.2-2.3,0.2c-1.9,0-3.7-0.3-5.4-0.9
				c-2.2-0.8-4.2-2-5.9-3.7c-1.8-1.8-3.3-4-4.1-6.5c-0.5-1.6-0.8-3.3-0.8-5c0-0.7,0.1-1.4,0.1-2.1C826.1,181.5,827.1,179,828.6,177z
				"/>
			<path class="st2" d="M926.7,226.3c-0.7,0-1.3,0.1-2,0.3c-0.3,0.1-0.5,0.2-0.8,0.3c-1.3,0.6-2.4,1.6-3.1,2.9
				c-0.6,1.2-0.9,2.5-0.7,3.8c0,0.4,0.1,0.8,0.3,1.2c0.5,1.7,1.7,3,3.2,3.9c1.6,0.8,3.3,1,5,0.5c1.7-0.5,3-1.7,3.9-3.2
				c1.7-3.2,0.4-7.2-2.8-8.9C928.7,226.5,927.7,226.3,926.7,226.3z"/>
			<path class="st2" d="M921,142.8c0.4,0.2,0.8,0.3,1.2,0.4c1.7,0.4,3.5,0.1,5-0.8c3.1-1.9,4.1-5.9,2.2-9c-1.2-2-3.4-3.2-5.6-3.2
				c-1.2,0-2.3,0.3-3.4,1c-1.5,0.9-2.6,2.3-3,4.1c-0.1,0.3-0.1,0.5-0.1,0.8c-0.2,1.4,0.1,2.9,0.9,4.2
				C918.9,141.4,919.9,142.3,921,142.8z"/>
			<path class="st2" d="M836.4,95c1.1,0.9,2.5,1.4,4,1.4c1.4,0,2.6-0.4,3.7-1.1c1.7-1.2,2.9-3.2,2.9-5.4c0-3.6-2.9-6.6-6.6-6.6
				s-6.6,2.9-6.6,6.6C833.9,91.9,834.9,93.8,836.4,95z"/>
			<path class="st2" d="M750.9,147.8c1.6,0.8,3.3,1,5,0.5c0.3-0.1,0.5-0.2,0.8-0.3c1.3-0.6,2.4-1.6,3.1-2.9c0.6-1.2,0.9-2.5,0.7-3.8
				c0-0.4-0.1-0.8-0.3-1.2c-0.5-1.7-1.7-3-3.2-3.9c-1-0.5-2-0.8-3-0.8c-0.7,0-1.3,0.1-2,0.3c-1.7,0.5-3,1.7-3.9,3.2v0
				c-0.8,1.6-1,3.3-0.5,5C748.2,145.6,749.3,146.9,750.9,147.8z"/>
			<path class="st2" d="M759.5,231.9c-0.4-0.2-0.8-0.3-1.2-0.4c-0.5-0.1-1-0.2-1.6-0.2c-1.2,0-2.4,0.3-3.4,1c-1.5,0.9-2.6,2.3-3,4.1
				s-0.1,3.5,0.8,5c1.9,3.1,5.9,4.1,9,2.2c1.5-0.9,2.6-2.3,3-4.1c0.1-0.3,0.1-0.5,0.1-0.8c0.2-1.4-0.1-2.9-0.9-4.2
				C761.7,233.4,760.7,232.5,759.5,231.9z"/>
		</g>
	</g>
	<g>
		<path class="st0" d="M1024.2,186.7c2,8.4,10.5,13.5,18.9,11.5l18.3-4.5l17.6,8.8c-2.8,8.8-4.2,17.8-4.2,27c0,49.6,40.4,90,90,90
			s90-40.4,90-90c0-9.6-1.5-19-4.5-28.1l15.5-7.8l18.3,4.5c4,1,8.2,0.3,11.8-1.8c3.6-2.2,6.1-5.6,7.1-9.6l1.8-7.3
			c1-4,0.3-8.2-1.8-11.8c-2.1-3.5-5.5-6-9.5-7c-0.3-4.3-2.3-8.3-5.7-11.1l-5.9-4.8c-3.2-2.6-7.3-3.9-11.4-3.4
			c-4.1,0.4-7.9,2.4-10.5,5.7l-0.9,1.2c-1.7-1-3.7-1.6-5.7-1.9l-7.5-1c-8.5-1.1-16.4,4.9-17.5,13.5l-0.8,6.4
			c-3.3-3.2-6.9-6.2-10.7-8.9c1.7-4.7,2.7-9.7,3.1-14.7c2-0.7,3.8-1.7,5.5-3.1c4.2-3.3,6.9-8.1,7.6-13.4l0.7-6.1
			c1.2-9.5-4.6-18.4-13.4-21.4c0.7-10.2-2.4-20.2-8.8-28.4c-6.9-8.8-16.8-14.4-27.8-15.7l-18.4-2.3c-11.1-1.4-22,1.7-30.8,8.6
			c-8.2,6.4-13.6,15.3-15.4,25.4c-9.4,0.8-17,8.1-18.2,17.6l-0.7,6.1c-0.7,5.3,0.8,10.6,4.1,14.8c1.7,2.2,3.8,4,6.2,5.3
			c-0.5,2.9-0.7,5.9-0.7,8.8c0,6.2,1.1,12.6,3.2,18.5c-4.6,3.3-8.9,7-12.9,11.1l-1.1-8.5c-1.1-8.5-9-14.6-17.5-13.5l-7.5,1
			c-2,0.3-3.9,0.9-5.7,1.9l-0.9-1.2c-2.6-3.2-6.4-5.2-10.5-5.7c-4.1-0.4-8.3,0.8-11.4,3.4l-5.9,4.8c-3.4,2.8-5.4,6.8-5.7,11.1
			c-4,1-7.3,3.5-9.5,7c-2.2,3.6-2.8,7.8-1.8,11.8L1024.2,186.7z"/>
		<path class="st1" d="M1016.6,174.9c2,8.4,10.5,13.5,18.9,11.5l18.3-4.5l17.6,8.8c-2.8,8.8-4.2,17.8-4.2,27c0,49.6,40.4,90,90,90
			c49.6,0,90-40.4,90-90c0-9.6-1.5-19-4.5-28.1l15.5-7.8l18.3,4.5c4,1,8.2,0.3,11.8-1.8c3.6-2.2,6.1-5.6,7.1-9.6l1.8-7.3
			c1-4,0.3-8.2-1.8-11.8c-2.1-3.5-5.5-6-9.5-7c-0.3-4.3-2.3-8.3-5.7-11.1l-5.9-4.8c-3.2-2.6-7.3-3.9-11.4-3.4
			c-4.1,0.4-7.9,2.4-10.5,5.7l-0.9,1.2c-1.7-1-3.7-1.6-5.7-1.9l-7.5-1c-8.5-1.1-16.4,4.9-17.5,13.5l-0.8,6.4
			c-3.3-3.2-6.9-6.2-10.7-8.9c1.7-4.7,2.7-9.7,3.1-14.7c2-0.7,3.8-1.7,5.5-3.1c4.2-3.3,6.9-8.1,7.6-13.4l0.7-6.1
			c1.2-9.5-4.6-18.4-13.4-21.4c0.7-10.2-2.4-20.2-8.8-28.4c-6.9-8.8-16.8-14.4-27.8-15.7l-18.4-2.3c-11.1-1.4-22,1.7-30.8,8.6
			c-8.2,6.4-13.6,15.3-15.4,25.4c-9.4,0.8-17,8.1-18.2,17.6l-0.7,6.1c-0.7,5.3,0.8,10.6,4.1,14.8c1.7,2.2,3.8,4,6.2,5.3
			c-0.5,2.9-0.7,5.9-0.7,8.8c0,6.2,1.1,12.6,3.2,18.5c-4.6,3.3-8.9,7-12.9,11.1l-1.1-8.5c-1.1-8.5-9-14.6-17.5-13.5l-7.5,1
			c-2,0.3-3.9,0.9-5.7,1.9l-0.9-1.2c-2.6-3.2-6.4-5.2-10.5-5.7c-4.1-0.4-8.3,0.8-11.4,3.4l-5.9,4.8c-3.4,2.8-5.4,6.8-5.7,11.1
			c-4,1-7.3,3.5-9.5,7c-2.2,3.6-2.8,7.8-1.8,11.8L1016.6,174.9z"/>
		<g>
			<path class="st2" d="M1117.7,125.8c0,6.5,1.6,12.6,4.3,18c0.6,1.1,1.2,2.2,1.9,3.3c0.7,1.1,1.4,2.1,2.2,3.1
				c7.2,9.2,18.5,15.2,31.1,15.2c12.6,0,23.9-5.9,31.1-15.2c0.8-1,1.5-2.1,2.2-3.1c0.7-1.1,1.3-2.1,1.9-3.3c2.8-5.4,4.3-11.5,4.3-18
				c0-3.2-0.4-6.2-1.1-9.2l-73.6-9C1119.3,113,1117.7,119.2,1117.7,125.8z M1169,122c2.1,0,3.8,1.7,3.8,3.8c0,2.1-1.7,3.8-3.8,3.8
				c-2.1,0-3.8-1.7-3.8-3.8C1165.3,123.7,1166.9,122,1169,122z M1149.6,130.7c1.6,0,3,1.3,3,3c0,0.9-0.4,1.8-1.1,2.3
				c-0.5,0.4-1.1,0.6-1.8,0.6c-0.5,0-1-0.1-1.4-0.3c-0.9-0.5-1.6-1.5-1.6-2.6C1146.6,132,1148,130.7,1149.6,130.7z M1137,116.4
				c2.1,0,3.8,1.7,3.8,3.8c0,2.1-1.7,3.8-3.8,3.8c-2.1,0-3.8-1.7-3.8-3.8C1133.3,118.1,1134.9,116.4,1137,116.4z M1132.4,139.6
				c1.3,1,2.7,1.9,4.1,2.7c1.8,1,3.7,1.9,5.6,2.5c14.4,5.2,30.7,1.7,30.7,1.7c-17.5,9.7-28.9,4.6-35-0.6c-1.2-1.1-2.3-2.1-3.1-3.1
				C1133.3,141.2,1132.5,140,1132.4,139.6C1132.3,139.6,1132.3,139.6,1132.4,139.6C1132.3,139.6,1132.4,139.6,1132.4,139.6z"/>
			<path class="st2" d="M1111.9,103.8l3.5,0.4l4,0.5l4.1,0.5l71.5,8.8l4.1,0.5l4,0.5l1.8,0.2c1.2,0.1,2.4-0.2,3.3-0.9
				c0.9-0.7,1.5-1.8,1.7-3l0.7-6.1c0.3-2.4-1.4-4.7-3.9-5l-10.8-1.3l-0.5-0.1l0.1-0.6l1.5-12.1c0.8-6.9-1.1-13.8-5.4-19.3
				c-4.3-5.5-10.5-9-17.4-9.9l-18.4-2.3c-14.3-1.8-27.4,8.5-29.2,22.8l-1.5,12.6l-11.3-1.4c-0.2,0-0.4,0-0.5,0
				c-2.2,0-4.2,1.7-4.4,3.9l-0.7,6.1c-0.1,1.2,0.2,2.4,0.9,3.3C1109.6,103,1110.7,103.6,1111.9,103.8z"/>
			<path class="st2" d="M1031.8,171.2l23.8-5.8l29,14.5l3.4,1.7l3.4,1.7c-5.4,10.3-8.5,22-8.5,34.5c0,41,33.4,74.4,74.4,74.4
				s74.4-33.4,74.4-74.4c0-12.8-3.3-24.9-9-35.4l3.4-1.7l3.4-1.7l27-13.5l23.8,5.8l1.8-7.3l-19.4-4.7l7.6-9.4l-5.9-4.8l-10.9,13.4
				l-11.7,5.9l1.9-14.4l-7.5-1l-2.5,19.4l-8.2,4.1l-3.4,1.7l-3.4,1.7c-6.1-9-14.2-16.5-23.5-22.1c-8.6,11.6-22.4,19.1-37.9,19.1
				s-29.3-7.5-37.9-19.1c-9.7,5.7-17.9,13.6-24.1,23l-3.4-1.7l-3.4-1.7l-10-5l-2.5-19.4l-7.5,1l1.9,14.4l-11.7-5.9l-10.9-13.4
				l-5.9,4.8l7.6,9.4l-19.4,4.7L1031.8,171.2z M1153.4,187.3c4,0,7.3,3.3,7.3,7.3c0,4-3.3,7.3-7.3,7.3c-4,0-7.3-3.3-7.3-7.3
				C1146.2,190.6,1149.4,187.3,1153.4,187.3z M1153.4,214.8c4,0,7.3,3.3,7.3,7.3s-3.3,7.3-7.3,7.3c-4,0-7.3-3.3-7.3-7.3
				S1149.4,214.8,1153.4,214.8z M1153.4,241.1c4,0,7.3,3.3,7.3,7.3c0,4-3.3,7.3-7.3,7.3c-4,0-7.3-3.3-7.3-7.3
				C1146.2,244.3,1149.4,241.1,1153.4,241.1z"/>
		</g>
	</g>
	<g>
		<path class="st0" d="M339,497.4l-29.6-25.1v-49.8c0-8.3-6.7-15-15-15h-34.6c-6.8,0-12.5,4.5-14.4,10.6l-19.3-16.3
			c-5.6-4.8-13.8-4.8-19.4,0L93.9,497.4c-4.8,4.1-6.6,10.7-4.4,16.6c2.2,5.9,7.8,9.9,14.1,9.9h17.1v96.6c0,8.3,6.7,15,15,15h161.4
			c8.3,0,15-6.7,15-15v-96.6h17.1c6.3,0,11.9-4,14.1-9.9C345.6,508.1,343.8,501.4,339,497.4z"/>
		<path class="st1" d="M331.7,486L302.1,461v-49.8c0-8.3-6.7-15-15-15h-34.6c-6.8,0-12.5,4.5-14.4,10.6l-19.3-16.3
			c-5.6-4.8-13.8-4.8-19.4,0L86.6,486c-4.8,4.1-6.6,10.7-4.4,16.6c2.2,5.9,7.8,9.9,14.1,9.9h17.1v96.6c0,8.3,6.7,15,15,15h161.4
			c8.3,0,15-6.7,15-15v-96.6H322c6.3,0,11.9-4,14.1-9.9C338.3,496.8,336.5,490.1,331.7,486z"/>
		<g>
			<path class="st2" d="M289.9,501.7l-80.7-68.3l-80.7,68.3v107.5h161.4V501.7z M209.1,447.8l30.6,26.9h-60.5L209.1,447.8z
				 M250,584.2h-90.2v-75.9H250V584.2z"/>
			<polygon class="st2" points="287.1,463.2 287.1,458.4 287.1,411.2 252.5,411.2 252.5,429.1 252.5,433.9 252.5,438.7 209.2,401.9 
				96.3,497.5 121.2,497.5 122.2,497.5 124.8,495.2 128.5,492.2 209.2,423.8 289.9,492.2 293.5,495.2 296.2,497.5 297.1,497.5 
				322,497.5 287.1,467.9 			"/>
			<rect x="167.1" y="515.6" class="st2" width="34.2" height="27.1"/>
			<rect x="208.5" y="515.6" class="st2" width="34.2" height="27.1"/>
			<rect x="167.1" y="549.9" class="st2" width="34.2" height="27.1"/>
			<rect x="208.5" y="549.9" class="st2" width="34.2" height="27.1"/>
		</g>
	</g>
	<g>
		<path class="st0" d="M601.2,177.1c-1.1-7.3-7.5-12.9-15.1-12.9h-24.6c2.6-6.2,4.2-15.8-1.5-27.9c2.5-4.2,2.9-9.3,1-13.9
			c-0.2-0.4-0.4-0.8-0.6-1.2l-3.2-8.1c-1.5-3.8-4.4-6.8-8.1-8.4c-3.7-1.6-7.9-1.7-11.7-0.2c-0.9,0.3-1.8,0.8-2.7,1.2
			c-0.1-0.4-0.3-0.7-0.4-1.1c-0.2-0.4-0.3-0.7-0.5-1.1l-3.2-8.1c-1.5-3.8-4.4-6.8-8.1-8.4c-3.7-1.6-7.9-1.7-11.7-0.2
			c-5.5,2.2-12.3,7.2-16.4,15.2c-3.2-0.9-6.6-0.8-9.8,0.5c-6.2,2.5-14.1,8.6-17.7,18.3c-2.1,5.7-3.6,14.8,1.2,26.2
			c-2.7,3.7-3.5,8.5-2.3,13c0.1,0.4,0.2,0.7,0.4,1.1l0.8,3h-20.2c-8.4,0-15.3,6.9-15.3,15.3v39.8c0,18.4,6,36.3,16.9,50.9h-10
			c-4.2,0-8.3,1.8-11.1,4.8c-2.9,3.1-4.4,7.2-4.1,11.4c1.2,18.5,16.7,33,35.3,33h115.9c18.6,0,34.1-14.5,35.3-33
			c0.1-2.1-0.1-4.1-0.8-6c9-4.1,16.7-10.5,22.4-18.7c6.5-9.3,9.9-20.2,9.9-31.5c0-12.3-4.2-24.4-11.8-34.1
			C622.2,187,612.2,180.3,601.2,177.1z"/>
		<path class="st1" d="M593.8,165.6c-1.1-7.3-7.5-12.9-15.1-12.9h-24.6c2.6-6.2,4.2-15.8-1.5-27.9c2.5-4.2,2.9-9.3,1-13.9
			c-0.2-0.4-0.4-0.8-0.6-1.2l-3.2-8.1c-1.5-3.8-4.4-6.8-8.1-8.4c-3.7-1.6-7.9-1.7-11.7-0.2c-0.9,0.3-1.8,0.8-2.7,1.2
			c-0.1-0.4-0.3-0.7-0.4-1.1c-0.2-0.4-0.3-0.7-0.5-1.1l-3.2-8.1c-1.5-3.8-4.4-6.8-8.1-8.4c-3.7-1.6-7.9-1.7-11.7-0.2
			c-5.5,2.2-12.3,7.2-16.4,15.2c-3.2-0.9-6.6-0.8-9.8,0.5c-6.2,2.5-14.1,8.6-17.7,18.3c-2.1,5.7-3.6,14.8,1.2,26.2
			c-2.7,3.7-3.5,8.5-2.3,13c0.1,0.4,0.2,0.7,0.4,1.1l0.8,3h-20.2c-8.4,0-15.3,6.9-15.3,15.3v39.8c0,18.4,6,36.3,16.9,50.9h-10
			c-4.2,0-8.3,1.8-11.1,4.8c-2.9,3.1-4.4,7.2-4.1,11.4c1.2,18.5,16.7,33,35.3,33H567c18.6,0,34.1-14.5,35.3-33
			c0.1-2.1-0.1-4.1-0.8-6c9-4.1,16.7-10.5,22.4-18.7c6.5-9.3,9.9-20.2,9.9-31.5c0-12.3-4.2-24.4-11.8-34.1
			C614.8,175.5,604.8,168.8,593.8,165.6z"/>
		<g>
			<path class="st2" d="M586.1,179.4V190c12.7,3.4,22,14.9,22,28.6c0,16.3-13.3,29.6-29.6,29.6c-1.3,0-2.6-0.1-3.8-0.3
				c-2,3.2-4.2,6.3-6.6,9.2c3.3,0.9,6.8,1.4,10.4,1.4c22,0,40-17.9,40-40C618.5,199.2,604.5,183,586.1,179.4z"/>
			<path class="st2" d="M439.4,207.7c0,24.7,12.9,46.4,32.3,58.8h74.7c5.3-3.4,10.1-7.4,14.3-12.1c2.4-2.6,4.5-5.4,6.5-8.4
				c7.3-11,11.5-24.2,11.5-38.3V189v-10.3V168H439.4V207.7z"/>
			<path class="st2" d="M539.6,116.9L539.6,116.9l-3.9-9.6c-0.7,0.3-6.6,2.8-9.1,9.4c-2,5.2-1.2,11.3,2.3,17.9
				c1.2,2.4,2.5,5.8,1.5,8.2c-1.1,2.6-4.5,3.6-4.5,3.6l0.1,0l2.7,10c0.8-0.2,8.1-2.4,11.2-9.4c2.2-5,1.6-10.8-1.8-17.2
				c-2-3.8-2.6-7.1-1.8-9.4C537.2,118,539.5,116.9,539.6,116.9z"/>
			<path class="st2" d="M513,99.2L513,99.2l-3.9-9.6c-0.7,0.3-6.6,2.8-9.1,9.4c-2,5.2-1.2,11.3,2.3,17.9c1.2,2.4,2.5,5.8,1.5,8.2
				c-1.1,2.6-4.5,3.6-4.5,3.6l0.1,0l2.7,10c0.8-0.2,8.1-2.4,11.2-9.4c2.2-5,1.6-10.8-1.8-17.2c-2-3.8-2.6-7.1-1.8-9.4
				C510.5,100.3,512.9,99.3,513,99.2z"/>
			<path class="st2" d="M486.8,114.9L486.8,114.9l-3.9-9.6c-0.7,0.3-6.6,2.8-9.1,9.4c-2,5.2-1.2,11.3,2.3,17.9
				c1.2,2.4,2.5,5.8,1.5,8.2c-1.1,2.6-4.5,3.6-4.5,3.6l0.1,0l2.7,10c0.8-0.2,8.1-2.4,11.2-9.4c2.2-5,1.6-10.8-1.8-17.2
				c-2-3.8-2.6-7.1-1.8-9.4C484.4,116,486.7,114.9,486.8,114.9z"/>
			<path class="st2" d="M540.8,273.9h-9.9h-43.6h-9.9h-7.7h-38.5c0.7,10.5,9.4,18.8,20,18.8H567c10.6,0,19.4-8.3,20-18.8h-38.5
				H540.8z"/>
		</g>
	</g>
	<g>
		<path class="st0" d="M771.1,614.7l11.8-7.7c0.5-0.3,0.9-0.6,1.3-1c4.5,1.7,9.6,1,13.5-1.8c4.3,9.6,11.2,17.5,20.2,23
			c8.8,5.4,19.1,8.3,29.8,8.3c11.1,0,21.7-3.1,30.7-8.9c8.8-5.7,15.5-13.7,19.6-23.3c3.8,2.5,8.7,3.1,13,1.5c0.4,0.3,0.9,0.7,1.3,1
			l11.8,7.7c5.7,3.7,13.2,2.9,18-1.9c4.8-4.8,5.6-12.3,1.9-18l-7.7-11.8c-0.3-0.5-0.6-0.9-1-1.3c2-5.2,0.7-11.2-3.3-15.2l-5.3-5.3
			c-2.7-2.7-6.3-4.2-10.1-4.2c-1.4,0-2.7,0.2-4,0.6l-13.8-13.8c0.2-1.1,0.2-2.3,0.2-3.4c-1-14.2-1.5-28.5-1.3-42.5
			c0-0.8-0.1-1.7-0.2-2.5l15.6-15.6c4.7-0.7,9.2-3,12.6-6.4l25.6-25.6c8.8-8.8,8.8-23.1,0-31.9c-8.8-8.8-23.1-8.8-31.9,0l-16.9,16.9
			c1.9-23.2-6.9-42.6-24.4-53.7c-18.2-11.6-42.7-11.6-60.9,0c-17.1,10.9-25.9,29.8-24.5,52.4l-16.8-16.8c-4.3-4.3-9.9-6.6-16-6.6
			c-6,0-11.7,2.3-16,6.6c-4.3,4.3-6.6,9.9-6.6,16c0,6,2.3,11.7,6.6,16l25.6,25.6c3.4,3.4,7.8,5.6,12.6,6.4l15.6,15.6
			c-0.1,0.8-0.2,1.7-0.2,2.5c0.2,14.8-0.3,30-1.4,45c-0.1,1.1,0,2.3,0.2,3.4l-13.7,13.7c-1.3-0.4-2.7-0.6-4-0.6
			c-3.8,0-7.4,1.5-10.1,4.2l-5.3,5.3c-4,4-5.2,10-3.3,15.2c-0.3,0.4-0.7,0.9-1,1.3l-7.7,11.8c-3.7,5.7-2.9,13.2,1.9,18
			c2.7,2.7,6.3,4.2,10.2,4.2C766,617,768.7,616.2,771.1,614.7z"/>
		<path class="st1" d="M764.1,603.8l11.8-7.7c0.5-0.3,0.9-0.6,1.3-1c4.5,1.7,9.6,1,13.5-1.8c4.3,9.6,11.2,17.5,20.2,23
			c8.8,5.4,19.1,8.3,29.8,8.3c11.1,0,21.7-3.1,30.7-8.9c8.8-5.7,15.5-13.7,19.6-23.3c3.8,2.5,8.7,3.1,13,1.5c0.4,0.3,0.9,0.7,1.3,1
			l11.8,7.7c5.7,3.7,13.2,2.9,18-1.9c4.8-4.8,5.6-12.3,1.9-18l-7.7-11.8c-0.3-0.5-0.6-0.9-1-1.3c2-5.2,0.7-11.2-3.3-15.2l-5.3-5.3
			c-2.7-2.7-6.3-4.2-10.1-4.2c-1.4,0-2.7,0.2-4,0.6l-13.8-13.8c0.2-1.1,0.2-2.3,0.2-3.4c-1-14.2-1.5-28.5-1.3-42.5
			c0-0.8-0.1-1.7-0.2-2.5l15.6-15.6c4.7-0.7,9.2-3,12.6-6.4l25.6-25.6c8.8-8.8,8.8-23.1,0-31.9c-8.8-8.8-23.1-8.8-31.9,0l-16.9,16.9
			c1.9-23.2-6.9-42.6-24.4-53.7c-18.2-11.6-42.7-11.6-60.9,0c-17.1,10.9-25.9,29.8-24.5,52.4l-16.8-16.8c-4.3-4.3-9.9-6.6-16-6.6
			c-6,0-11.7,2.3-16,6.6c-4.3,4.3-6.6,9.9-6.6,16c0,6,2.3,11.7,6.6,16l25.6,25.6c3.4,3.4,7.8,5.6,12.6,6.4l15.6,15.6
			c-0.1,0.8-0.2,1.7-0.2,2.5c0.2,14.8-0.3,30-1.4,45c-0.1,1.1,0,2.3,0.2,3.4l-13.7,13.7c-1.3-0.4-2.7-0.6-4-0.6
			c-3.8,0-7.4,1.5-10.1,4.2l-5.3,5.3c-4,4-5.2,10-3.3,15.2c-0.3,0.4-0.7,0.9-1,1.3l-7.7,11.8c-3.7,5.7-2.9,13.2,1.9,18
			c2.7,2.7,6.3,4.2,10.2,4.2C759.1,606.2,761.8,605.4,764.1,603.8z"/>
		<g>
			<path class="st2" d="M800.5,422.7c1.4,11,2.5,21.9,3.3,32.7l37.5,37.5l36.3-36.3c0.8-11.2,1.9-22.5,3.4-34
				C889.5,355.9,791.8,355.9,800.5,422.7z"/>
			<path class="st2" d="M855.2,506.8l22.5,22.5c-1.1-14.7-1.5-29.2-1.4-43.7L855.2,506.8z"/>
			<path class="st2" d="M880.9,560.4l-39.6-39.6l-41,41C793.3,627,889.4,626.6,880.9,560.4z"/>
			<path class="st2" d="M827.3,506.8l-22.4-22.4c0.2,15.4-0.3,30.7-1.5,46.3L827.3,506.8z"/>
			<path class="st2" d="M756.3,591.8l11.8-7.7l8.3-8.3l5.9,5.9l5.3-5.3l-5.3-5.3l19.2-19.2l39.8-39.8l38.4,38.4L899,570l-5.3,5.3
				l5.3,5.3l5.9-5.9l8.3,8.3l11.8,7.7l-7.7-11.8l-8.3-8.3l5.9-5.9l-5.3-5.3l-5.3,5.3l-26-26l-31.8-31.8l29.9-29.9l23.8-23.8
				c2.8,0.9,6,0.2,8.3-2l25.6-25.6c3.2-3.2,3.2-8.4,0-11.6v0c-3.2-3.2-8.4-3.2-11.6,0l-25.6,25.6c-2.2,2.2-2.9,5.4-2,8.3L877,465.7
				l-35.7,35.7l-37-37l-17.9-17.9c0.9-2.8,0.2-6-2-8.3l-25.6-25.6c-3.2-3.2-8.4-3.2-11.6,0c-3.2,3.2-3.2,8.4,0,11.6l25.6,25.6
				c2.2,2.2,5.4,2.9,8.3,2l23.7,23.7l31.1,31.1L802.7,540l-25.8,25.8l-5.3-5.3l-5.3,5.3l5.9,5.9L764,580L756.3,591.8z"/>
		</g>
	</g>
	<g>
		<path class="st0" d="M1310.3,581.2c-3.7-2-8-2.4-12-1.3c0.1-0.8,0.2-1.6,0.2-2.3c-0.1-24.3-18.6-46.5-53.4-64
			c-20-10-40-16-47.7-18.1c-6.1-1.7-12.5,0.4-16.5,5.3l-25.7-3.1l-3.4-7.4c7.2-6.8,11.3-16.2,11.3-26.1c0-19.8-16.1-35.8-35.8-35.8
			c-19.8,0-35.8,16.1-35.8,35.8c0,5.3,1.2,10.6,3.5,15.4c-9.3,12.6-17.9,31.6-25.6,56.7h-44.4c-8.8,0-15.9,7.1-15.9,15.9V595
			c0,2.8,0.7,5.5,2.1,7.9c-1.6,2.5-2.5,5.5-2.5,8.5v8.2c0,8.8,7.1,15.9,15.9,15.9h176.6c1.6,0,3.2-0.2,4.7-0.7
			c1.5,0.5,3.1,0.7,4.7,0.7h59.3c8.6,0,16.8-2.5,24-7.2l17.8-11.9c4.4-3,7.1-7.9,7.1-13.2v-8C1318.7,589.3,1315.5,584,1310.3,581.2z
			"/>
		<path class="st1" d="M1302.6,569.2c-3.7-2-8-2.4-12-1.3c0.1-0.8,0.2-1.6,0.2-2.3c-0.1-24.3-18.6-46.5-53.4-64
			c-20-10-40-16-47.7-18.1c-6.1-1.7-12.5,0.4-16.5,5.3l-25.7-3.1l-3.4-7.4c7.2-6.8,11.3-16.2,11.3-26.1c0-19.8-16.1-35.8-35.8-35.8
			s-35.8,16.1-35.8,35.8c0,5.3,1.2,10.6,3.5,15.4c-9.3,12.6-17.9,31.6-25.6,56.7h-44.4c-8.8,0-15.9,7.1-15.9,15.9V583
			c0,2.8,0.7,5.5,2.1,7.9c-1.6,2.5-2.5,5.5-2.5,8.5v8.2c0,8.8,7.1,15.9,15.9,15.9h176.6c1.6,0,3.2-0.2,4.7-0.7
			c1.5,0.5,3.1,0.7,4.7,0.7h59.3c8.6,0,16.8-2.5,24-7.2l17.8-11.9c4.4-3,7.1-7.9,7.1-13.2v-8C1311,577.3,1307.8,571.9,1302.6,569.2z
			"/>
		<g>
			<polygon class="st2" points="1193.4,599.4 1175.2,599.4 1175.2,590.7 1166.9,590.7 1166.9,599.4 1056.3,599.4 1056.3,590.7 
				1047.9,590.7 1047.9,599.4 1016.8,599.4 1016.8,607.6 1193.4,607.6 			"/>
			<path class="st2" d="M1277.2,594.9c-4.5,2.9-9.7,4.5-15,4.5h-39v-8.8h-8.4v8.8h-12v8.2h59.3c5.4,0,10.7-1.6,15.1-4.6l17.8-11.9
				v-8L1277.2,594.9z"/>
			<path class="st2" d="M1075.7,532.5h39.8l5.1-32.8l6.4,14l34.7,4.1l9.9-13.3l-34.9-4.1l-12.1-26.6l0.4-2.4
				c8.3-2.4,14.5-10.1,14.5-19.2c0-11-8.9-19.9-19.9-19.9s-19.9,8.9-19.9,19.9c0,6.7,3.3,12.6,8.4,16.2
				C1093.2,480.2,1081.7,512.3,1075.7,532.5z"/>
			<path class="st2" d="M1056.3,583h110.6h8.4h39.6h8.4h34.9c8.7-5.6,15-14.6,16.8-17.4c-0.1-22.6-24.2-39.6-44.7-49.8
				c-18.9-9.5-38.1-15.2-44.8-17l-10.3,13.7l-4.8,6.4l-15.9,21.3h-40.3h-40.8h-56.3V583h30.8H1056.3z"/>
		</g>
	</g>
	<g>
		<path class="st0" d="M287.3,769.8h-50v-20.7c1.6-1.5,3-3.1,4.2-4.9c0,0,0,0,0,0l43.2-7.2c7-1.2,12.2-7.2,12.2-14.3v-13
			c0-4.3-1.9-8.3-5.1-11.1c-3.3-2.8-7.6-4-11.8-3.2l-45.3,7.5c-5.2-3.9-11.6-6-18.1-6c-10.1,0-19.4,4.9-25,13.2l-43.2,7.2
			c-7,1.2-12.2,7.2-12.2,14.3v13c0,4.3,1.9,8.3,5.1,11.1c2.6,2.2,6,3.4,9.4,3.4c0.8,0,1.6-0.1,2.4-0.2l42.1-7v17.9h-50
			c-16.5,0-30,13.5-30,30V911c0,16.5,13.5,30,30,30h142c16.5,0,30-13.5,30-30V799.7C317.3,783.2,303.9,769.8,287.3,769.8z
			 M273.5,813.6v43.5h-7.9v-43.5H273.5z M228,813.6v43.5h-23.4v-43.5H228z M167.1,813.6v43.5h-7.9v-43.5H167.1z"/>
		<path class="st1" d="M280.3,758.8h-50v-20.7c1.6-1.5,3-3.1,4.2-4.9c0,0,0,0,0,0l43.2-7.2c7-1.2,12.2-7.2,12.2-14.3v-13
			c0-4.3-1.9-8.3-5.1-11.1c-3.3-2.8-7.6-4-11.8-3.2l-45.3,7.5c-5.2-3.9-11.6-6-18.1-6c-10.1,0-19.4,4.9-25,13.2l-43.2,7.2
			c-7,1.2-12.2,7.2-12.2,14.3v13c0,4.3,1.9,8.3,5.1,11.1c2.6,2.2,6,3.4,9.4,3.4c0.8,0,1.6-0.1,2.4-0.2l42.1-7v17.9h-50
			c-16.5,0-30,13.5-30,30V900c0,16.5,13.5,30,30,30h142c16.5,0,30-13.5,30-30V788.8C310.3,772.2,296.8,758.8,280.3,758.8z
			 M266.5,802.6v43.5h-7.9v-43.5H266.5z M221,802.6v43.5h-23.4v-43.5H221z M160,802.6v43.5h-7.9v-43.5H160z"/>
		<g>
			<path class="st2" d="M202.8,737.9v28.4h13V738c-2,0.6-4.1,0.9-6.2,0.9C207.2,738.9,204.9,738.5,202.8,737.9z"/>
			<path class="st2" d="M143.7,720.6v13L189,726c-1.5-3-2.3-6.4-2.3-9.9c0-0.9,0.1-1.8,0.2-2.7L143.7,720.6z"/>
			<path class="st2" d="M275.3,711.6v-13l-45.3,7.5c1.5,3,2.3,6.4,2.3,9.9c0,0.9-0.1,1.8-0.2,2.7L275.3,711.6z"/>
			<path class="st2" d="M224.8,720.1c0.3-1.3,0.5-2.6,0.5-3.9c0-3.2-1-6.2-2.6-8.7c-2.8-4.3-7.6-7.1-13.1-7.1
				c-7.3,0-13.5,5-15.2,11.8c-0.3,1.3-0.5,2.6-0.5,3.9c0,3.2,1,6.2,2.6,8.7c1.6,2.4,3.8,4.3,6.4,5.6c2,1,4.3,1.5,6.7,1.5
				c2.2,0,4.3-0.5,6.2-1.3C220.2,728.7,223.5,724.8,224.8,720.1z"/>
			<path class="st2" d="M280.3,773.3h-64.5h-13h-64.5c-8.5,0-15.4,6.9-15.4,15.4V900c0,8.5,6.9,15.4,15.4,15.4h142
				c8.5,0,15.4-6.9,15.4-15.4V788.8C295.7,780.2,288.8,773.3,280.3,773.3z M174.6,860.6h-37v-71.9c0-0.4,0.3-0.7,0.7-0.7h36.3V860.6
				z M235.5,860.6h-52.5V788h52.5V860.6z M281,860.6h-37v-71.9c0-0.4,0.3-0.7,0.7-0.7H281V860.6z"/>
		</g>
	</g>
	<g>
		<path class="st0" d="M633.6,880L633.6,880L633.6,880c-1.1-0.1-2.1-0.3-3.1-0.4c-8.5-20.6-21.5-50.5-34.9-77.1
			c-24.8-49-37.4-58.6-41.6-61.7c-5-3.8-11.9-4-17.2-0.6l-80.9,52.3c-3.8-1.3-7.7-2-11.7-2c-19.2,0-34.8,15.6-34.8,34.8
			c0,19.2,15.6,34.8,34.8,34.8c5.4,0,10.6-1.2,15.4-3.6c-3.1,7.8-6,15.6-8.5,23.3c-0.5,0.1-1.1,0.1-1.6,0.2
			c-6.7,0.9-12.6,4.4-16.6,9.8c-3.8,5.1-5.3,11.4-4.3,17.6l2.1,13.5c1.9,11.5,12.1,20.1,23.9,20.1c1.1,0,2.2-0.1,3.3-0.2
			c27.6-3.8,55.8-5.7,83.7-5.7c27.9,0,56,1.9,83.7,5.7c1.1,0.2,2.2,0.2,3.3,0.2c11.6,0,22-8.5,23.9-20.2l2.1-13.4
			c1-6.2-0.5-12.5-4.3-17.6C646.2,884.4,640.3,880.9,633.6,880z"/>
		<path class="st1" d="M626.3,868.7L626.3,868.7L626.3,868.7c-1.1-0.1-2.1-0.3-3.1-0.4c-8.5-20.6-21.5-50.5-34.9-77.1
			c-24.8-49-37.4-58.6-41.6-61.7c-5-3.8-11.9-4-17.2-0.6l-80.9,52.3c-3.8-1.3-7.7-2-11.7-2c-19.2,0-34.8,15.6-34.8,34.8
			s15.6,34.8,34.8,34.8c5.4,0,10.6-1.2,15.4-3.6c-3.1,7.8-6,15.6-8.5,23.3c-0.5,0.1-1.1,0.1-1.6,0.2c-6.7,0.9-12.6,4.4-16.6,9.8
			c-3.8,5.1-5.3,11.4-4.3,17.6l2.1,13.5c1.9,11.5,12.1,20.1,23.9,20.1c1.1,0,2.2-0.1,3.3-0.2c27.6-3.8,55.8-5.7,83.7-5.7
			c27.9,0,56,1.9,83.7,5.7c1.1,0.2,2.2,0.2,3.3,0.2c11.6,0,22-8.5,23.9-20.2l2.1-13.4c1-6.2-0.5-12.5-4.3-17.6
			C638.9,873.1,633,869.6,626.3,868.7z"/>
		<g>
			<path class="st2" d="M609.5,874.4c-17.6-42.5-50.7-116.9-71.8-132.9l-82,53c3.9,3.7,6.7,8.6,7.8,14.1l35.8-22.1
				c0,0-25.4,37.6-41.7,88C508.1,868.7,559,868.6,609.5,874.4z"/>
			<path class="st2" d="M456.8,814c0-0.4,0-0.8,0-1.2c-0.3-5.7-3.1-10.8-7.3-14.2c-3.4-2.8-7.7-4.4-12.4-4.4
				c-10.9,0-19.8,8.9-19.8,19.8c0,10.9,8.9,19.8,19.8,19.8C447.9,833.8,456.8,824.9,456.8,814z"/>
			<path class="st2" d="M624.3,883.5L624.3,883.5c-3.9-0.5-7.8-1-11.6-1.5c-52.3-6.3-105.1-6.2-157.4,0.1c-3.7,0.4-7.4,0.9-11,1.4
				c-2.7,0.4-5,1.7-6.6,3.8c-1.4,1.9-1.9,4.1-1.6,6.3l2.1,13.5c0.8,4.8,5.4,8.1,10.3,7.5c28.4-3.9,57.1-5.9,85.7-5.9
				c28.6,0,57.3,2,85.7,5.9c4.9,0.7,9.5-2.7,10.3-7.5l2.1-13.5c0.4-2.2-0.2-4.5-1.6-6.3C629.3,885.2,627,883.9,624.3,883.5z"/>
		</g>
	</g>
	<g>
		<path class="st0" d="M950.3,900.6c0-0.6,0.8-14.1-3-29.7c-5.5-22.3-17.6-38.3-35.1-46.5c-1.6-0.7-3.2-1.2-4.9-1.3
			c-1.4-1-2.9-1.7-4.6-2.2c-1.6-0.4-3.1-0.8-4.6-1.1c-1-0.2-2-0.3-3-0.3h-12.4c-1.2,0-2.4,0.1-3.6,0.4c-1.2-0.3-2.4-0.4-3.6-0.4h-6
			v-8.7c0-1.2-0.1-2.4-0.4-3.6c0.3-1.2,0.4-2.4,0.4-3.6v-28c0-0.5,0-1-0.1-1.5c3.4-4.4,5.3-9.9,5.3-15.5V747
			c0-14-11.4-25.5-25.5-25.5h-82.8c-14,0-25.5,11.4-25.5,25.5v11.7c0,5.7,1.9,11.3,5.5,15.8c0,0.4-0.1,0.8-0.1,1.2v76.9
			c0,3.5,1.3,7,3.6,9.7v33.8c0,2.4,0.6,4.8,1.7,6.9c-3.3,2.8-5.3,6.9-5.3,11.3v11.8c0,8.2,6.7,14.8,14.8,14.8h177.9
			c8.2,0,14.8-6.7,14.8-14.8v-11.8c0-4-1.6-7.9-4.5-10.6C950,902.7,950.2,901.7,950.3,900.6z"/>
		<path class="st1" d="M943.1,889.4c0-0.6,0.8-14.1-3-29.7c-5.5-22.3-17.6-38.3-35.1-46.5c-1.6-0.7-3.2-1.2-4.9-1.3
			c-1.4-1-2.9-1.7-4.6-2.2c-1.6-0.4-3.1-0.8-4.6-1.1c-1-0.2-2-0.3-3-0.3h-12.4c-1.2,0-2.4,0.1-3.6,0.4c-1.2-0.3-2.4-0.4-3.6-0.4h-6
			v-8.7c0-1.2-0.1-2.4-0.4-3.6c0.3-1.2,0.4-2.4,0.4-3.6v-28c0-0.5,0-1-0.1-1.5c3.4-4.4,5.3-9.9,5.3-15.5v-11.7
			c0-14-11.4-25.5-25.5-25.5h-82.8c-14,0-25.5,11.4-25.5,25.5v11.7c0,5.7,1.9,11.3,5.5,15.8c0,0.4-0.1,0.8-0.1,1.2v76.9
			c0,3.5,1.3,7,3.6,9.7v33.8c0,2.4,0.6,4.8,1.7,6.9c-3.3,2.8-5.3,6.9-5.3,11.3V915c0,8.2,6.7,14.8,14.8,14.8h177.9
			c8.2,0,14.8-6.7,14.8-14.8v-11.8c0-4-1.6-7.9-4.5-10.6C942.8,891.5,943,890.5,943.1,889.4z"/>
		<g>
			<path class="st2" d="M891.6,888.5v-64.4c-1.1-0.3-2.3-0.6-3.5-0.9h-12.4v11.7h-7.2v-11.7h-15.3l-12.3,9.3l-4.3-5.7l11.2-8.4
				v-18.7h-18.6v-7.2h18.6v-28c-1.7,0.6-3.5,0.9-5.4,0.9h-82.8c-1.8,0-3.5-0.3-5.2-0.8v76.9c1.4-0.1,2.8-0.2,4.1-0.2
				c22.5,0,40.9,18.3,40.9,40.9c0,2.1-0.2,4.3-0.5,6.4H891.6z"/>
			<path class="st2" d="M898.8,826.7v61.8h29.5C928.3,888.5,931.2,841.8,898.8,826.7z"/>
			<path class="st2" d="M759.5,758.1h82.8c2,0,3.8-0.5,5.4-1.5c3.1-1.9,5.2-5.2,5.2-9.1v-11.7c0-5.9-4.8-10.6-10.6-10.6h-82.8
				c-5.9,0-10.6,4.8-10.6,10.6v11.7c0,4,2.2,7.5,5.5,9.3C755.8,757.6,757.6,758.1,759.5,758.1z"/>
			<path class="st2" d="M758.4,848.4c-0.2,0-0.3,0-0.5,0v36.5h10.2h11.4H792c0.1-0.9,0.1-1.9,0.1-2.8
				C792.1,863.5,777,848.4,758.4,848.4z"/>
			<polygon class="st2" points="900.9,892.4 898.8,892.4 891.6,892.4 889.5,892.4 889.5,903.1 779.5,903.1 779.5,892.1 768.1,892.1 
				768.1,903.1 754.3,903.1 754.3,915 932.2,915 932.2,903.1 900.9,903.1 			"/>
		</g>
	</g>
	<g>
		<path class="st0" d="M1294.5,833.6l-1-8.8c-0.5-4.2-2.7-8.1-6-10.7c-3.3-2.6-7.6-3.8-11.8-3.2l-10.4,1.4c-0.1-0.1-0.2-0.2-0.2-0.3
			l-6.8-7.3l3.1-17.5c5.1-2,9.7-5.3,13.3-9.4c6.2-7,9.2-16,8.6-25.3c-0.6-9.3-4.8-17.8-11.8-24c-7-6.2-16-9.2-25.3-8.6
			c-9.3,0.6-17.8,4.8-24,11.8c-3,3.4-5.2,7.2-6.7,11.3c-19.1,5.7-40.6,18.1-55.4,27.5l-0.1,0.1c-10.1,6.4-17.3,16.3-20.4,27.8
			c-2.9,10.8-2.8,21.2,0.2,30.2l-56.8,7.4c-2.7,0.3-5.2,1.3-7.3,2.9l-16.4-5.8c-8.3-2.9-17.4,1.4-20.3,9.6l-5.3,14.8
			c-1.4,4-1.2,8.3,0.6,12.2c1.8,3.8,5,6.7,9,8.2l174.6,62.3c1.7,0.6,3.5,0.9,5.3,0.9c1.1,0,2.3-0.1,3.4-0.4l38.8-8.4
			c5.4-1.2,9.8-5,11.6-10.2L1288,891c1.4-4,1.2-8.3-0.6-12.2c-1.8-3.8-5-6.7-9-8.2l-3.4-1.2c0.3-0.1,0.6-0.2,0.8-0.4
			c6.3-2.9,10.9-8.4,12.8-15.1c0.6-2.2,0.9-4.5,0.9-6.8C1293.2,843.7,1295.1,838.7,1294.5,833.6L1294.5,833.6z"/>
		<path class="st1" d="M1286.8,821.6l-1-8.8c-0.5-4.2-2.7-8.1-6-10.7c-3.3-2.6-7.6-3.8-11.8-3.2l-10.4,1.4c-0.1-0.1-0.2-0.2-0.2-0.3
			l-6.8-7.3l3.1-17.5c5.1-2,9.7-5.3,13.3-9.4c6.2-7,9.2-16,8.6-25.3c-0.6-9.3-4.8-17.8-11.8-24c-7-6.2-16-9.2-25.3-8.6
			c-9.3,0.6-17.8,4.8-24,11.8c-3,3.4-5.2,7.2-6.7,11.3c-19.1,5.7-40.6,18.1-55.4,27.5l-0.1,0.1c-10.1,6.4-17.3,16.3-20.4,27.8
			c-2.9,10.8-2.8,21.2,0.2,30.2l-56.8,7.4c-2.7,0.3-5.2,1.3-7.3,2.9l-16.4-5.8c-8.3-2.9-17.4,1.4-20.3,9.6l-5.3,14.8
			c-1.4,4-1.2,8.3,0.6,12.2c1.8,3.8,5,6.7,9,8.2l174.6,62.3c1.7,0.6,3.5,0.9,5.3,0.9c1.1,0,2.3-0.1,3.4-0.4l38.8-8.4
			c5.4-1.2,9.8-5,11.6-10.2l11.1-31.1c1.4-4,1.2-8.3-0.6-12.2c-1.8-3.8-5-6.7-9-8.2l-3.4-1.2c0.3-0.1,0.6-0.2,0.8-0.4
			c6.3-2.9,10.9-8.4,12.8-15.1c0.6-2.2,0.9-4.5,0.9-6.8C1285.5,831.7,1287.4,826.7,1286.8,821.6L1286.8,821.6z"/>
		<g>
			<path class="st2" d="M1246.2,833.7l5.6,6.5c2.2,3,6.2,4.1,9.6,2.5h0c4.3-2,5.8-7.4,3.1-11.4L1246.2,833.7z"/>
			<polygon class="st2" points="1216.3,851.6 1206.5,838.8 1169.5,843.6 1136.3,860.8 1161.9,869.9 			"/>
			<path class="st2" d="M1160.7,772c-6.7,4.2-11.5,10.8-13.6,18.4c-2.7,10.2-2.8,23.1,7,32.3l36.3-4.7l-3.7-4.8
				c-2.9-4.9-1.9-11.3,2.6-15l33.1-27.5l-4.4,30.5l10.3,11.9l17.2-2.2l-12.2-13.1l6.3-36c5.6,0.3,11.2-1.9,15.2-6.5
				c6.9-7.9,6.2-19.9-1.7-26.9c-7.9-6.9-19.9-6.2-26.9,1.7c-3.5,4-5,9-4.7,13.9c-19.4,2.9-46.1,18.5-60.8,27.8L1160.7,772z"/>
			<polygon class="st2" points="1251.4,817.1 1233.8,819.4 1195.4,824.4 1161.2,828.8 1077.2,839.7 1095.5,846.2 1171,836.4 
				1201.6,832.5 1240.8,827.4 1258.8,825 1271,823.5 1270,814.7 			"/>
			<polygon class="st2" points="1243.2,893.5 1228.7,896.6 1220.7,898.3 1151.3,873.5 1127.9,865.2 1094.7,853.3 1080.4,848.2 
				1062.1,841.7 1047.7,836.5 1046.2,836 1040.9,850.8 1047.8,853.2 1060.5,857.8 1215.5,913.1 1223.5,911.4 1254.2,904.7 
				1265.3,873.6 1252,868.8 			"/>
		</g>
	</g>
</g>
</svg>
